# xmcd
#
# Track frame offsets: 
#        150
#        18777
#        37605
#        56481
#        77082
#        98481
#        118901
#        135770
#        160413
#        174037
#        191166
#        198138
#        220623
#
# Disc length: 4192 seconds
#
# Revision: 11
# Processed by: cddbd v1.5.2PL0 Copyright (c) Steve Scherf et al.
# Submitted via: ExactAudioCopy v1.3
#
DISCID=92105e0d
DTITLE=var - stereoplay: feindynamik und auflösung vol. 1 - inakustik
DYEAR=2016
DGENRE=Audiophile
TTITLE0=blues company - move to the groove
TTITLE1=otis taylor - twelve string mile
TTITLE2=al di meola - babylon
TTITLE3=friend n fellow - a dog
TTITLE4=diana panton - sing
TTITLE5=sönke meinen - avishai
TTITLE6=peo alfonsi - change of heart
TTITLE7=gunar letzbor, ars antiqua austria - die vier jahreszeiten - d
TTITLE7=er herbst (allegro)
TTITLE8=gunar letzbor, ars antiqua austria - die vier jahreszeiten - d
TTITLE8=er herbst (adagio molto)
TTITLE9=gunar letzbor, ars antiqua austria - die vier jahreszeiten - d
TTITLE9=er herbst (allegro)
TTITLE10=yetzabel arias fernandez, amsterdam baroque orchestra - kanta
TTITLE10=te ''tu fedel?'' rezitativ
TTITLE11=yetzabel arias fernandez, amsterdam baroque orchestra - kanta
TTITLE11=te ''tu fedel?'' arie
TTITLE12=jaap van zweden, netherlands radio philharmonic orchestra - s
TTITLE12=ymphonie nr. 4, 1. satz: bewegt, nicht zu schnell
EXTD=
EXTT0=
EXTT1=
EXTT2=
EXTT3=
EXTT4=
EXTT5=
EXTT6=
EXTT7=
EXTT8=
EXTT9=
EXTT10=
EXTT11=
EXTT12=
PLAYORDER=
